<svg width="10" height="10" viewBox="0 0 10 10" fill="none" xmlns="http://www.w3.org/2000/svg">
<path d="M7.8916 3.62354C7.9745 3.62363 8.0499 3.66008 8.10938 3.72119C8.16482 3.78652 8.19257 3.8679 8.18457 3.95361C8.18457 3.98195 7.96277 6.79107 7.83594 7.97314C7.75637 8.69828 7.28822 9.1388 6.58691 9.15088C6.0478 9.16295 5.52082 9.1665 5.00195 9.1665C4.45095 9.1665 3.91172 9.16296 3.38867 9.15088C2.71087 9.13463 2.24252 8.6862 2.16699 7.97314C2.03651 6.78691 1.81851 3.98195 1.81445 3.95361C1.81049 3.86791 1.83771 3.78652 1.89355 3.72119C1.94867 3.65994 2.02883 3.62354 2.1123 3.62354H7.8916ZM5.86035 0.833496C6.22869 0.833518 6.5581 1.09087 6.65332 1.45752L6.7207 1.76123C6.77581 2.00914 6.99109 2.18506 7.23828 2.18506H8.45312C8.61515 2.18515 8.75 2.31953 8.75 2.49072V2.64893C8.74998 2.81594 8.61514 2.9545 8.45312 2.95459H1.54785C1.38536 2.95459 1.25002 2.81599 1.25 2.64893V2.49072C1.25 2.31947 1.38535 2.18506 1.54785 2.18506H2.7627C3.00919 2.18488 3.22367 2.00937 3.2793 1.76221L3.34277 1.47803C3.44165 1.09096 3.76726 0.833518 4.13965 0.833496H5.86035Z" fill="#E71D36"/>
</svg>
