<svg width="7" height="8" viewBox="0 0 7 8" fill="none" xmlns="http://www.w3.org/2000/svg">
<path d="M4.10059 0.648438C4.48077 0.160507 5.14384 0.115874 5.67871 0.541016L6.29395 1.0293C6.54594 1.22637 6.71401 1.48657 6.77148 1.75977C6.83772 2.06023 6.7663 2.35511 6.56738 2.61035L2.90723 7.34473C2.73921 7.55972 2.49088 7.68107 2.22559 7.68555L0.766602 7.70312C0.687117 7.70302 0.621185 7.64931 0.603516 7.57324L0.271484 6.13574C0.214018 5.87154 0.271524 5.59819 0.439453 5.3877L3.03516 2.02832C3.07937 1.97463 3.15887 1.96604 3.21191 2.00586L4.30371 2.875C4.37445 2.93323 4.47252 2.96461 4.57422 2.95117C4.7906 2.92408 4.93613 2.72695 4.91406 2.5166C4.9008 2.4091 4.84809 2.31914 4.77734 2.25195C4.75453 2.23347 3.71582 1.40137 3.71582 1.40137C3.6496 1.34767 3.63662 1.24934 3.68945 1.18262L4.10059 0.648438Z" fill="#5B93FF"/>
</svg>
