<svg width="8" height="8" viewBox="0 0 8 8" fill="none" xmlns="http://www.w3.org/2000/svg">
<path d="M4.39062 0.647949C4.7782 0.159866 5.45476 0.115059 6 0.540527L6.62598 1.02881C6.88285 1.22589 7.05372 1.48606 7.1123 1.75928C7.17988 2.05977 7.108 2.35459 6.90527 2.60986L3.17383 7.34424C3.00267 7.55912 2.7507 7.68046 2.48047 7.68506L0.993164 7.70264C0.912047 7.70264 0.844198 7.6489 0.826172 7.57275L0.488281 6.13525C0.429709 5.87105 0.488018 5.5977 0.65918 5.38721L3.30469 2.02783C3.34975 1.97408 3.43127 1.96551 3.48535 2.00537L4.59766 2.87451C4.66976 2.93274 4.7694 2.96412 4.87305 2.95068C5.09386 2.9238 5.24226 2.72662 5.21973 2.51611C5.2062 2.40863 5.15218 2.31865 5.08008 2.25146C5.04958 2.22729 4.01561 1.41393 3.99902 1.40088C3.9315 1.34719 3.91781 1.24886 3.97168 1.18213L4.39062 0.647949Z" fill="#66FF5B"/>
</svg>
